<mxfile host="app.diagrams.net" agent="Mozilla/5.0 (Macintosh; Intel Mac OS X 10_15_7) AppleWebKit/537.36 (KHTML, like Gecko) Chrome/138.0.0.0 Safari/537.36" version="28.0.6">
  <diagram name="Page-1" id="xxYj6DSGki-A0ZyH1wLQ">
    <mxGraphModel dx="1426" dy="769" grid="1" gridSize="10" guides="1" tooltips="1" connect="1" arrows="1" fold="1" page="1" pageScale="1" pageWidth="827" pageHeight="1169" math="0" shadow="0">
      <root>
        <mxCell id="0" />
        <mxCell id="1" parent="0" />
        <mxCell id="DadWPNMetJ5slgNre_6H-13" style="edgeStyle=orthogonalEdgeStyle;rounded=0;orthogonalLoop=1;jettySize=auto;html=1;exitX=1;exitY=0;exitDx=0;exitDy=0;entryX=0;entryY=0.5;entryDx=0;entryDy=0;curved=1;" edge="1" parent="1" source="DadWPNMetJ5slgNre_6H-1" target="DadWPNMetJ5slgNre_6H-2">
          <mxGeometry relative="1" as="geometry" />
        </mxCell>
        <mxCell id="DadWPNMetJ5slgNre_6H-14" style="edgeStyle=orthogonalEdgeStyle;rounded=0;orthogonalLoop=1;jettySize=auto;html=1;entryX=0;entryY=0.5;entryDx=0;entryDy=0;curved=1;" edge="1" parent="1" source="DadWPNMetJ5slgNre_6H-1" target="DadWPNMetJ5slgNre_6H-9">
          <mxGeometry relative="1" as="geometry" />
        </mxCell>
        <mxCell id="DadWPNMetJ5slgNre_6H-15" style="edgeStyle=orthogonalEdgeStyle;rounded=0;orthogonalLoop=1;jettySize=auto;html=1;exitX=1;exitY=1;exitDx=0;exitDy=0;entryX=0;entryY=0.5;entryDx=0;entryDy=0;curved=1;" edge="1" parent="1" source="DadWPNMetJ5slgNre_6H-1" target="DadWPNMetJ5slgNre_6H-11">
          <mxGeometry relative="1" as="geometry" />
        </mxCell>
        <mxCell id="DadWPNMetJ5slgNre_6H-1" value="&lt;i&gt;DoorbellButtonEvent&lt;/i&gt;" style="rounded=1;whiteSpace=wrap;html=1;" vertex="1" parent="1">
          <mxGeometry x="40" y="370" width="120" height="60" as="geometry" />
        </mxCell>
        <mxCell id="DadWPNMetJ5slgNre_6H-5" value="" style="edgeStyle=orthogonalEdgeStyle;rounded=0;orthogonalLoop=1;jettySize=auto;html=1;" edge="1" parent="1" source="DadWPNMetJ5slgNre_6H-2" target="DadWPNMetJ5slgNre_6H-3">
          <mxGeometry relative="1" as="geometry" />
        </mxCell>
        <mxCell id="DadWPNMetJ5slgNre_6H-2" value="Configure &lt;i&gt;DoorbellTimer&lt;/i&gt;" style="rounded=1;whiteSpace=wrap;html=1;" vertex="1" parent="1">
          <mxGeometry x="189" y="200" width="120" height="60" as="geometry" />
        </mxCell>
        <mxCell id="DadWPNMetJ5slgNre_6H-7" value="" style="edgeStyle=orthogonalEdgeStyle;rounded=0;orthogonalLoop=1;jettySize=auto;html=1;" edge="1" parent="1" source="DadWPNMetJ5slgNre_6H-3" target="DadWPNMetJ5slgNre_6H-6">
          <mxGeometry relative="1" as="geometry" />
        </mxCell>
        <mxCell id="DadWPNMetJ5slgNre_6H-3" value="Play Doorbell Tone" style="rounded=1;whiteSpace=wrap;html=1;" vertex="1" parent="1">
          <mxGeometry x="353" y="200" width="120" height="60" as="geometry" />
        </mxCell>
        <mxCell id="DadWPNMetJ5slgNre_6H-27" value="" style="edgeStyle=orthogonalEdgeStyle;rounded=0;orthogonalLoop=1;jettySize=auto;html=1;" edge="1" parent="1" source="DadWPNMetJ5slgNre_6H-4" target="DadWPNMetJ5slgNre_6H-24">
          <mxGeometry relative="1" as="geometry" />
        </mxCell>
        <mxCell id="DadWPNMetJ5slgNre_6H-4" value="&lt;i&gt;DoorbellTimerEvent&lt;/i&gt;" style="rounded=1;whiteSpace=wrap;html=1;" vertex="1" parent="1">
          <mxGeometry x="40" y="570" width="120" height="60" as="geometry" />
        </mxCell>
        <mxCell id="DadWPNMetJ5slgNre_6H-23" style="edgeStyle=orthogonalEdgeStyle;rounded=0;orthogonalLoop=1;jettySize=auto;html=1;curved=1;" edge="1" parent="1" source="DadWPNMetJ5slgNre_6H-6" target="DadWPNMetJ5slgNre_6H-12">
          <mxGeometry relative="1" as="geometry" />
        </mxCell>
        <mxCell id="DadWPNMetJ5slgNre_6H-6" value="Start &lt;i&gt;DoorbellTimer&lt;/i&gt;" style="rounded=1;whiteSpace=wrap;html=1;" vertex="1" parent="1">
          <mxGeometry x="519" y="200" width="120" height="60" as="geometry" />
        </mxCell>
        <mxCell id="DadWPNMetJ5slgNre_6H-22" style="edgeStyle=orthogonalEdgeStyle;rounded=0;orthogonalLoop=1;jettySize=auto;html=1;entryX=0;entryY=0;entryDx=0;entryDy=0;curved=1;" edge="1" parent="1" source="DadWPNMetJ5slgNre_6H-9" target="DadWPNMetJ5slgNre_6H-12">
          <mxGeometry relative="1" as="geometry" />
        </mxCell>
        <mxCell id="DadWPNMetJ5slgNre_6H-9" value="Disable &lt;i&gt;DoorbellButtonEvent&lt;/i&gt;" style="rounded=1;whiteSpace=wrap;html=1;" vertex="1" parent="1">
          <mxGeometry x="353" y="310" width="120" height="60" as="geometry" />
        </mxCell>
        <mxCell id="DadWPNMetJ5slgNre_6H-17" style="edgeStyle=orthogonalEdgeStyle;rounded=0;orthogonalLoop=1;jettySize=auto;html=1;exitX=1;exitY=0;exitDx=0;exitDy=0;entryX=0;entryY=0.5;entryDx=0;entryDy=0;curved=1;" edge="1" parent="1" source="DadWPNMetJ5slgNre_6H-11" target="DadWPNMetJ5slgNre_6H-16">
          <mxGeometry relative="1" as="geometry" />
        </mxCell>
        <mxCell id="DadWPNMetJ5slgNre_6H-18" value="Away" style="edgeLabel;html=1;align=center;verticalAlign=middle;resizable=0;points=[];" vertex="1" connectable="0" parent="DadWPNMetJ5slgNre_6H-17">
          <mxGeometry x="-0.2256" y="4" relative="1" as="geometry">
            <mxPoint as="offset" />
          </mxGeometry>
        </mxCell>
        <mxCell id="DadWPNMetJ5slgNre_6H-19" style="edgeStyle=orthogonalEdgeStyle;rounded=0;orthogonalLoop=1;jettySize=auto;html=1;entryX=0.5;entryY=1;entryDx=0;entryDy=0;curved=1;" edge="1" parent="1" source="DadWPNMetJ5slgNre_6H-11" target="DadWPNMetJ5slgNre_6H-12">
          <mxGeometry relative="1" as="geometry" />
        </mxCell>
        <mxCell id="DadWPNMetJ5slgNre_6H-20" value="There" style="edgeLabel;html=1;align=center;verticalAlign=middle;resizable=0;points=[];" vertex="1" connectable="0" parent="DadWPNMetJ5slgNre_6H-19">
          <mxGeometry x="-0.0681" y="2" relative="1" as="geometry">
            <mxPoint as="offset" />
          </mxGeometry>
        </mxCell>
        <mxCell id="DadWPNMetJ5slgNre_6H-11" value="Get Mode" style="ellipse;whiteSpace=wrap;html=1;aspect=fixed;" vertex="1" parent="1">
          <mxGeometry x="210" y="420" width="80" height="80" as="geometry" />
        </mxCell>
        <mxCell id="DadWPNMetJ5slgNre_6H-12" value="Idle" style="rounded=1;whiteSpace=wrap;html=1;" vertex="1" parent="1">
          <mxGeometry x="670" y="370" width="120" height="60" as="geometry" />
        </mxCell>
        <mxCell id="DadWPNMetJ5slgNre_6H-21" style="edgeStyle=orthogonalEdgeStyle;rounded=0;orthogonalLoop=1;jettySize=auto;html=1;entryX=0;entryY=0.5;entryDx=0;entryDy=0;" edge="1" parent="1" source="DadWPNMetJ5slgNre_6H-16" target="DadWPNMetJ5slgNre_6H-12">
          <mxGeometry relative="1" as="geometry" />
        </mxCell>
        <mxCell id="DadWPNMetJ5slgNre_6H-16" value="Invoke &lt;i&gt;CoffeeEnable&lt;/i&gt;" style="rounded=1;whiteSpace=wrap;html=1;" vertex="1" parent="1">
          <mxGeometry x="354" y="380" width="120" height="60" as="geometry" />
        </mxCell>
        <mxCell id="DadWPNMetJ5slgNre_6H-28" value="" style="edgeStyle=orthogonalEdgeStyle;rounded=0;orthogonalLoop=1;jettySize=auto;html=1;" edge="1" parent="1" source="DadWPNMetJ5slgNre_6H-24" target="DadWPNMetJ5slgNre_6H-25">
          <mxGeometry relative="1" as="geometry" />
        </mxCell>
        <mxCell id="DadWPNMetJ5slgNre_6H-24" value="Disable Doorbell Tone" style="rounded=1;whiteSpace=wrap;html=1;" vertex="1" parent="1">
          <mxGeometry x="260" y="570" width="120" height="60" as="geometry" />
        </mxCell>
        <mxCell id="DadWPNMetJ5slgNre_6H-29" value="" style="edgeStyle=orthogonalEdgeStyle;rounded=0;orthogonalLoop=1;jettySize=auto;html=1;" edge="1" parent="1" source="DadWPNMetJ5slgNre_6H-25" target="DadWPNMetJ5slgNre_6H-26">
          <mxGeometry relative="1" as="geometry" />
        </mxCell>
        <mxCell id="DadWPNMetJ5slgNre_6H-25" value="Enable &lt;i&gt;DoorbellButtonEvent&lt;/i&gt;" style="rounded=1;whiteSpace=wrap;html=1;" vertex="1" parent="1">
          <mxGeometry x="470" y="570" width="120" height="60" as="geometry" />
        </mxCell>
        <mxCell id="DadWPNMetJ5slgNre_6H-26" value="Idle" style="rounded=1;whiteSpace=wrap;html=1;" vertex="1" parent="1">
          <mxGeometry x="670" y="570" width="120" height="60" as="geometry" />
        </mxCell>
      </root>
    </mxGraphModel>
  </diagram>
</mxfile>
